<?xml version="1.0" encoding="utf-8"?>
<!-- Generator: Adobe Illustrator 18.0.0, SVG Export Plug-In . SVG Version: 6.00 Build 0)  -->
<!DOCTYPE svg PUBLIC "-//W3C//DTD SVG 1.1//EN" "http://www.w3.org/Graphics/SVG/1.1/DTD/svg11.dtd">
<svg version="1.1" id="Layer_1" xmlns="http://www.w3.org/2000/svg" xmlns:xlink="http://www.w3.org/1999/xlink" x="0px" y="0px"
	 viewBox="0 0 64 64" enable-background="new 0 0 64 64" xml:space="preserve">
<g>
	<g>
		<g>
			<path fill="#FF5F5F" d="M32,0c17.7,0,32,14.3,32,32S49.7,64,32,64S0,49.7,0,32S14.3,0,32,0z"/>
		</g>
	</g>
	<g>
		<g>
			<path fill="#514F6D" d="M32,9c12.7,0,23,10.3,23,23S44.7,55,32,55S9,44.7,9,32S19.3,9,32,9z"/>
		</g>
	</g>
	<g>
		<g>
			<path fill="#F9F7E4" d="M32,13c10.5,0,19,8.5,19,19s-8.5,19-19,19s-19-8.5-19-19S21.5,13,32,13z"/>
		</g>
	</g>
	<g>
		<g>
			<rect x="31.5" y="15" fill="#BEBECC" width="1" height="3"/>
		</g>
	</g>
	<g>
		<g>
			<rect x="31.5" y="46" fill="#BEBECC" width="1" height="3"/>
		</g>
	</g>
	<g>
		<g>
			<rect x="46" y="31.5" fill="#BEBECC" width="3" height="1"/>
		</g>
	</g>
	<g>
		<g>
			<rect x="15" y="31.5" fill="#BEBECC" width="3" height="1"/>
		</g>
	</g>
	<g>
		<g>
			
				<rect x="20.5" y="41.5" transform="matrix(-0.7071 -0.7071 0.7071 -0.7071 5.5398 88.215)" fill="#BEBECC" width="1" height="3"/>
		</g>
	</g>
	<g>
		<g>
			
				<rect x="42.5" y="19.5" transform="matrix(-0.7071 -0.7071 0.7071 -0.7071 58.4602 66.2947)" fill="#BEBECC" width="1" height="3"/>
		</g>
	</g>
	<g>
		<g>
			<rect x="20.5" y="19.5" transform="matrix(0.7071 -0.7071 0.7071 0.7071 -8.715 21.0398)" fill="#BEBECC" width="1" height="3"/>
		</g>
	</g>
	<g>
		<g>
			
				<rect x="42.5" y="41.5" transform="matrix(0.7071 -0.7071 0.7071 0.7071 -17.7947 42.9602)" fill="#BEBECC" width="1" height="3"/>
		</g>
	</g>
	<g>
		<g>
			<polygon fill="#FF5F5F" points="38.7,26.8 37.2,25.3 34.3,28.2 34.7,28.6 23,40.3 23.7,41 35.4,29.3 35.8,29.7 			"/>
		</g>
	</g>
	<g>
		<g>
			<path fill="#514F6D" d="M41,33h-9c-0.6,0-1-0.4-1-1V21c0-0.6,0.4-1,1-1h0c0.6,0,1,0.4,1,1v9c0,0.6,0.4,1,1,1h7c0.6,0,1,0.4,1,1v0
				C42,32.6,41.6,33,41,33z"/>
		</g>
	</g>
	<g>
		<g>
			<circle fill="#FCDA4F" cx="32" cy="32" r="2"/>
		</g>
	</g>
</g>
</svg>
