<?xml version="1.0" encoding="utf-8"?>
<!-- Generator: Adobe Illustrator 18.0.0, SVG Export Plug-In . SVG Version: 6.00 Build 0)  -->
<!DOCTYPE svg PUBLIC "-//W3C//DTD SVG 1.1//EN" "http://www.w3.org/Graphics/SVG/1.1/DTD/svg11.dtd">
<svg version="1.1" id="Layer_1" xmlns="http://www.w3.org/2000/svg" xmlns:xlink="http://www.w3.org/1999/xlink" x="0px" y="0px"
	 viewBox="0 0 64 64" enable-background="new 0 0 64 64" xml:space="preserve">
<g id="XMLID_30_">
	<g>
		<g>
			<path fill="#1CD396" d="M32,25c3.5,0.9,6,3.7,6,7s-2.5,6.1-6,7V25z"/>
		</g>
		<g>
			<path fill="#FCE170" d="M32,39v22c0,1-0.8,1.9-1.9,1.9H30c-1,0-1.9-0.8-1.9-1.9v-1V4V3c0-1,0.8-1.9,1.9-1.9h0.2
				C31.2,1.1,32,2,32,3v22V39z"/>
		</g>
		<g>
			<polygon fill="#1CD396" points="28.1,4 28.1,60 28,60 9,43 9,21 28,4 			"/>
		</g>
		<g>
			<rect x="1" y="21" fill="#36564A" width="8" height="22"/>
		</g>
	</g>
	<g>
		<path fill="#2C2C3D" d="M51.7,4.3c-0.4-0.4-1-0.4-1.4,0c-0.4,0.4-0.4,1,0,1.4C57.9,12.8,62,22.1,62,32s-4.1,19.2-11.7,26.3
			c-0.4,0.4-0.4,1,0,1.4c0.2,0.2,0.5,0.3,0.7,0.3c0.2,0,0.5-0.1,0.7-0.3C59.6,52.3,64,42.5,64,32S59.6,11.7,51.7,4.3z"/>
		<path fill="#2C2C3D" d="M46.7,13.3c-0.4-0.4-1-0.4-1.4,0c-0.4,0.4-0.4,1,0,1.4c5,4.6,7.7,10.8,7.7,17.3s-2.7,12.6-7.7,17.3
			c-0.4,0.4-0.4,1,0,1.4c0.2,0.2,0.5,0.3,0.7,0.3c0.2,0,0.5-0.1,0.7-0.3C52,45.7,55,39.1,55,32S52,18.3,46.7,13.3z"/>
		<path fill="#2C2C3D" d="M41.7,22.3c-0.4-0.4-1-0.4-1.4,0c-0.4,0.4-0.4,1,0,1.4c4.4,4.6,4.4,12,0,16.6c-0.4,0.4-0.4,1,0,1.4
			c0.2,0.2,0.4,0.3,0.7,0.3c0.3,0,0.5-0.1,0.7-0.3C46.8,36.3,46.8,27.7,41.7,22.3z"/>
		<path fill="#2C2C3D" d="M33,24.3V3c0-1.6-1.3-2.9-2.9-2.9H30c-1.6,0-2.9,1.3-2.9,2.9v0.5L8.6,20H1c-0.6,0-1,0.4-1,1v22
			c0,0.6,0.4,1,1,1h7.6l18.5,16.5V61c0,1.6,1.3,2.9,2.9,2.9h0.2c1.6,0,2.9-1.3,2.9-2.9V39.7c3.6-1.2,6-4.3,6-7.7S36.6,25.5,33,24.3z
			 M8,42H2V22h6V42z M10,42.6V21.4L27.1,6.2v51.7L10,42.6z M31,61c0,0.5-0.4,0.9-0.9,0.9H30c-0.5,0-0.9-0.4-0.9-0.9V3
			c0-0.5,0.4-0.9,0.9-0.9h0.2C30.6,2.1,31,2.5,31,3V61z M33,37.6V26.4c2.4,1.1,4,3.2,4,5.6S35.4,36.5,33,37.6z"/>
	</g>
</g>
</svg>
